:FULLY-SPECIFIED
:FORCE-ALL-JOINTS-BE-3DOF
:DEGREES
917
root 2.69241 16.0654 32.3787 2.55763 10.3133 3.44794
lfemur -8.95496 6.38087 -2.61251
ltibia 23.6106 -0 0
lfoot -10.2219 -29.2843 -0.737936
ltoes 12.1885 -0 0
rfemur -22.6512 -6.00827 -7.76451
rtibia 53.2739 -0 0
rfoot 1.82213 -13.4717 -0.126494
rtoes -13.9748 0 0
lowerback -0.588402 -1.02496 -2.90335
upperback -0.700523 -1.31906 -5.35733
thorax -0.413673 -0.687691 -3.88203
lowerneck -7.0247 -3.90572 -0.566234
upperneck 4.06088 -5.49705 5.55576
head 2.72788 -2.56106 1.63654
lclavicle -1.85118e-15 0 0
lhumerus -52.8016 -37.9831 107.816
lradius 58.88 -0 0
lwrist 16.26 0 0
lhand 38.6811 23.4721 0.313023
lfingers 7.12502 -0 0
lthumb 61.0816 34.441 -0.0635238
rclavicle -1.85118e-15 0 0
rhumerus -53.1491 34.4673 -82.8077
rradius 114.606 -0 0
rwrist -7.15307 0 0
rhand 18.8996 -8.44669 -0.114266
rfingers 7.12502 -0 0
rthumb 43.483 -32.3129 -0.0407312
918
root 2.62275 16.0422 32.4231 2.7973 9.5065 3.62457
lfemur -7.89729 4.83787 -1.83181
ltibia 21.6001 -0 0
lfoot -9.83713 -31.4134 -0.694863
ltoes 12.3058 -0 0
rfemur -22.4473 -5.57343 -8.17475
rtibia 51.6119 -0 0
rfoot 1.62925 -12.7485 -0.119186
rtoes -18.028 0 0
lowerback -0.919432 -0.956933 -2.87236
upperback -0.787876 -1.21588 -5.58936
thorax -0.321309 -0.635664 -4.14846
lowerneck -7.02766 -3.69691 -0.466521
upperneck 4.03726 -5.22806 5.59446
head 2.70888 -2.4249 1.64537
lclavicle -1.85118e-15 0 0
lhumerus -52.8926 -38.0389 107.648
lradius 58.7452 -0 0
lwrist 16.4966 0 0
lhand 39.3617 23.9795 0.294932
lfingers 7.12502 -0 0
lthumb 61.6598 34.3199 -0.0598558
rclavicle -1.85118e-15 0 0
rhumerus -53.5822 36.0138 -81.8141
rradius 114.618 -0 0
rwrist -6.96604 0 0
rhand 19.3905 -8.70333 -0.107669
rfingers 7.12502 -0 0
rthumb 43.9422 -32.4107 -0.03838
919
root 2.55309 16.0189 32.4674 3.03392 8.69904 3.79738
lfemur -6.8628 3.28095 -1.08126
ltibia 19.5897 -0 0
lfoot -9.45427 -33.5422 -0.637528
ltoes 12.423 -0 0
rfemur -22.2468 -5.13715 -8.58314
rtibia 49.95 -0 0
rfoot 1.43648 -12.0253 -0.109444
rtoes -22.0812 0 0
lowerback -1.25042 -0.888725 -2.84176
upperback -0.875643 -1.11306 -5.82153
thorax -0.229189 -0.583208 -4.4148
lowerneck -7.03025 -3.48808 -0.366841
upperneck 4.01384 -4.95905 5.63302
head 2.68991 -2.28873 1.65416
lclavicle -1.85118e-15 0 0
lhumerus -52.9834 -38.0949 107.481
lradius 58.6104 -0 0
lwrist 16.7333 0 0
lhand 40.042 24.4866 0.270816
lfingers 7.12502 -0 0
lthumb 62.2381 34.1988 -0.0549657
rclavicle -1.85118e-15 0 0
rhumerus -53.9903 37.5663 -80.815
rradius 114.631 -0 0
rwrist -6.77901 0 0
rhand 19.8813 -8.9599 -0.0988733
rfingers 7.12502 -0 0
rthumb 44.4015 -32.5084 -0.0352454
920
root 2.48343 15.9957 32.5118 3.26759 7.89088 3.96647
lfemur -5.85002 1.7109 -0.359846
ltibia 17.5792 -0 0
lfoot -9.0738 -35.6706 -0.566013
ltoes 12.5403 -0 0
rfemur -22.0495 -4.69946 -8.98972
rtibia 48.288 -0 0
rfoot 1.24385 -11.3021 -0.0972695
rtoes -26.1345 0 0
lowerback -1.58136 -0.820341 -2.81156
upperback -0.963824 -1.01059 -6.05386
thorax -0.137315 -0.530324 -4.68105
lowerneck -7.03247 -3.27925 -0.267192
upperneck 3.9906 -4.69002 5.67146
head 2.67097 -2.15255 1.66291
lclavicle -1.85118e-15 0 0
lhumerus -53.0741 -38.1511 107.313
lradius 58.4755 -0 0
lwrist 16.97 0 0
lhand 40.7221 24.9935 0.240681
lfingers 7.12502 -0 0
lthumb 62.8163 34.0778 -0.0488541
rclavicle -1.85118e-15 0 0
rhumerus -54.3723 39.1242 -79.8084
rradius 114.644 -0 0
rwrist -6.59198 0 0
rhand 20.372 -9.21639 -0.0878805
rfingers 7.12502 -0 0
rthumb 44.8608 -32.6061 -0.0313275
921
root 2.41377 15.9725 32.5562 3.49842 7.08205 4.13193
lfemur -4.85755 0.128486 0.333392
ltibia 15.5687 -0 0
lfoot -8.69625 -37.7984 -0.48042
ltoes 12.6576 -0 0
rfemur -21.8554 -4.26038 -9.39455
rtibia 46.626 -0 0
rfoot 1.05138 -10.5789 -0.0826649
rtoes -30.1877 0 0
lowerback -1.91227 -0.751784 -2.78175
upperback -1.05242 -0.908479 -6.28633
thorax -0.0456881 -0.477014 -4.94721
lowerneck -7.03433 -3.07042 -0.167571
upperneck 3.96755 -4.42098 5.70978
head 2.65204 -2.01638 1.6716
lclavicle -1.85118e-15 0 0
lhumerus -53.1646 -38.2075 107.145
lradius 58.3407 -0 0
lwrist 17.2066 0 0
lhand 41.4019 25.4999 0.204534
lfingers 7.12502 -0 0
lthumb 63.3945 33.9568 -0.0415215
rclavicle -1.85118e-15 0 0
rhumerus -54.7269 40.6872 -78.7924
rradius 114.657 -0 0
rwrist -6.40495 0 0
rhand 20.8627 -9.47277 -0.0746915
rfingers 7.12502 -0 0
rthumb 45.32 -32.7038 -0.0266265
922
root 2.34411 15.9493 32.6006 3.72652 6.27257 4.29383
lfemur -3.88396 -1.46559 0.999338
ltibia 13.5582 -0 0
lfoot -8.32215 -39.9255 -0.380871
ltoes 12.7748 -0 0
rfemur -21.6646 -3.81996 -9.79767
rtibia 44.964 -0 0
rfoot 0.859121 -9.85585 -0.0656326
rtoes -34.2409 0 0
lowerback -2.24313 -0.683056 -2.75234
upperback -1.14142 -0.806729 -6.51896
thorax 0.0456895 -0.423279 -5.21329
lowerneck -7.03583 -2.86159 -0.0679762
upperneck 3.9447 -4.15193 5.74798
head 2.63314 -1.8802 1.68026
lclavicle -1.85118e-15 0 0
lhumerus -53.255 -38.2641 106.977
lradius 58.2059 -0 0
lwrist 17.4433 0 0
lhand 42.0813 26.0059 0.162383
lfingers 7.12502 -0 0
lthumb 63.9727 33.836 -0.0329689
rclavicle -1.85118e-15 0 0
rhumerus -55.0528 42.2548 -77.7647
rradius 114.67 -0 0
rwrist -6.21791 0 0
rhand 21.3533 -9.72904 -0.0593073
rfingers 7.12502 -0 0
rthumb 45.7792 -32.8014 -0.021143
923
root 2.27445 15.926 32.6449 3.95199 5.46246 4.45226
lfemur -2.92792 -3.07065 1.6388
ltibia 11.5478 -0 0
lfoot -7.952 -42.052 -0.267507
ltoes 12.8921 -0 0
rfemur -21.4769 -3.37821 -10.1991
rtibia 43.3021 -0 0
rfoot 0.667089 -9.13283 -0.0461754
rtoes -38.2941 0 0
lowerback -2.57395 -0.61416 -2.72333
upperback -1.23083 -0.705342 -6.75173
thorax 0.136816 -0.36912 -5.47928
lowerneck -7.03696 -2.65275 0.0315959
upperneck 3.92202 -3.88286 5.78605
head 2.61426 -1.74402 1.68886
lclavicle -1.85118e-15 0 0
lhumerus -53.3453 -38.3209 106.81
lradius 58.0711 -0 0
lwrist 17.68 0 0
lhand 42.7603 26.5113 0.114236
lfingers 7.12502 -0 0
lthumb 64.5509 33.7152 -0.023197
rclavicle -1.85118e-15 0 0
rhumerus -55.348 43.8266 -76.7226
rradius 114.682 -0 0
rwrist -6.03088 0 0
rhand 21.8439 -9.98516 -0.0417296
rfingers 7.12502 -0 0
rthumb 46.2385 -32.899 -0.014877
924
root 2.20479 15.9028 32.6893 4.17493 4.65173 4.60729
lfemur -1.98809 -4.68606 2.25253
ltibia 9.53729 -0 0
lfoot -7.58632 -44.1776 -0.14049
ltoes 13.0093 -0 0
rfemur -21.2925 -2.93516 -10.5989
rtibia 41.6401 -0 0
rfoot 0.475317 -8.40987 -0.0242966
rtoes -42.3473 0 0
lowerback -2.90473 -0.545097 -2.69471
upperback -1.32066 -0.604319 -6.98466
thorax 0.227689 -0.314539 -5.74519
lowerneck -7.03773 -2.44391 0.131148
upperneck 3.89954 -3.61377 5.82401
head 2.5954 -1.60784 1.69742
lclavicle -1.85118e-15 0 0
lhumerus -53.4354 -38.378 106.642
lradius 57.9363 -0 0
lwrist 17.9166 0 0
lhand 43.4389 27.0161 0.0601044
lfingers 7.12502 -0 0
lthumb 65.1291 33.5945 -0.012207
rclavicle -1.85118e-15 0 0
rhumerus -55.6106 45.402 -75.6635
rradius 114.695 -0 0
rwrist -5.84385 0 0
rhand 22.3343 -10.2411 -0.0219599
rfingers 7.12502 -0 0
rthumb 46.6977 -32.9965 -0.00782923
925
root 2.13513 15.8796 32.7337 4.39544 3.84042 364.759
lfemur -1.06315 -6.31122 2.8412
ltibia 7.52681 0 0
lfoot -7.2256 -46.3024 0
ltoes 13.1266 0 0
rfemur -21.1112 -2.49084 -10.9972
rtibia 39.9781 0 0
rfoot 0.283837 -7.68699 0
rtoes -46.4005 0 0
lowerback -3.23548 -0.47587 -2.6665
upperback -1.41089 -0.503662 -7.21775
thorax 0.318308 -0.259537 -6.011
lowerneck -7.03814 -2.23507 0.230682
upperneck 3.87724 -3.34467 5.86185
head 2.57656 -1.47165 1.70594
lclavicle -1.85118e-15 0 0
lhumerus -53.5254 -38.4352 106.474
lradius 57.8015 0 0
lwrist 18.1533 0 0
lhand 44.117 27.5203 0
lfingers 7.12502 0 0
lthumb 65.7072 33.474 0
rclavicle -1.85118e-15 0 0
rhumerus -55.8381 46.9807 -74.5842
rradius 114.708 0 0
rwrist -5.65682 0 0
rhand 22.8247 -10.4969 0
rfingers 7.12502 0 0
rthumb 47.1569 -753.094 0
926
root 2.09016 15.8531 32.7354 4.51625 3.53096 4.7739
lfemur -0.70355 -5.98163 2.86262
ltibia 7.18666 -0 0
lfoot -8.20458 -44.8254 -0.260933
ltoes 11.0246 -0 0
rfemur -21.5636 -3.12385 -10.9002
rtibia 40.3842 -0 0
rfoot -0.683601 -7.14125 -0.0933296
rtoes -46.2287 0 0
lowerback -3.19331 -0.470068 -2.50962
upperback -1.41678 -0.50468 -7.20791
thorax 0.286918 -0.261266 -6.09063
lowerneck -7.02574 -2.11157 0.419102
upperneck 3.75124 -3.182 5.74657
head 2.52571 -1.39592 1.64181
lclavicle -1.37161e-14 -3.97569e-14 0
lhumerus -53.7695 -38.7059 106.734
lradius 57.6991 -0 0
lwrist 18.4879 0 0
lhand 43.9469 27.3827 0.00408653
lfingers 7.12502 -0 0
lthumb 65.5709 33.5481 -0.00176259
rclavicle -1.37161e-14 -3.97569e-14 0
rhumerus -49.0877 45.5235 -67.4901
rradius 110.635 -0 0
rwrist -6.17812 0 0
rhand 19.9285 -12.2213 1.00111
rfingers 7.12502 -0 0
rthumb 44.4255 -35.1353 1.1252
